<svg version="1.2" xmlns="http://www.w3.org/2000/svg" viewBox="0 0 61 47" width="61" height="47">
	<title>new-product-tag</title>
	<style>
		.s0 { fill: #fc1717 } 
		.s1 { fill: #ffffff } 
	</style>
	<path class="s0" d="m60.9 47l-60.9-46.6h42 18.9z"/>
	<path class="s1" d="m24.4 9.7l9.1-6.3 2.3 1.8-2.4 5.5-0.8 1.5v0.1l1.9-1.4 4.6-3.2 1.9 1.5-9.1 6.3-2.3-1.8 2.3-5.4 0.8-1.6h-0.1l-1.7 1.3-4.6 3.2zm12.6 9.9q-1-0.8-1.4-1.7-0.3-0.9-0.2-1.8 0.2-0.9 0.9-1.6 0.9-1 2-1.4 1.2-0.5 2.4-0.3 1.2 0.1 2.4 1 1 0.8 1.4 1.6 0.3 0.9 0.2 1.8-0.2 0.9-0.9 1.7-0.9 0.9-2 1.4-1.2 0.5-2.4 0.3-1.3-0.2-2.4-1zm1.3-1.4q0.3 0.2 0.8 0.2 0.5 0 0.9-0.1 0.6-0.2 1-0.5 0.5-0.3 0.8-0.7 0.3-0.4 0.4-0.7 0.1-0.3 0-0.6-0.1-0.4-0.4-0.6-0.3-0.3-0.8-0.3-0.5 0-1 0.2-0.4 0.2-0.9 0.5-0.5 0.3-0.8 0.7-0.3 0.3-0.4 0.6-0.1 0.4 0 0.7 0.1 0.3 0.4 0.6zm13.3 2.3l2.4 1.9-9.1 3-2.6-2 4.6-6.5 2.2 1.7-4.8 5.6-0.3-0.4zm-0.2 10.1q-1-0.7-1.4-1.6-0.3-0.9-0.2-1.8 0.2-0.9 0.9-1.6 0.9-1 2-1.5 1.2-0.4 2.4-0.3 1.3 0.2 2.4 1.1 1 0.7 1.4 1.6 0.3 0.9 0.2 1.8-0.2 0.9-0.9 1.7-0.9 0.9-2 1.4-1.2 0.4-2.4 0.3-1.2-0.2-2.4-1.1zm1.3-1.4q0.4 0.3 0.8 0.3 0.5 0 1-0.2 0.5-0.1 0.9-0.4 0.5-0.3 0.8-0.7 0.3-0.4 0.4-0.7 0.1-0.3 0-0.7-0.1-0.3-0.4-0.5-0.3-0.3-0.8-0.3-0.4 0-1 0.2-0.4 0.1-0.9 0.4-0.5 0.3-0.8 0.7-0.3 0.4-0.4 0.7-0.1 0.3 0 0.7 0.1 0.3 0.4 0.5z"/>
</svg>